<svg version="1.0" xmlns="http://www.w3.org/2000/svg" width="128.000000pt" height="128.000000pt"
    viewBox="0 0 128.000000 128.000000" preserveAspectRatio="xMidYMid meet">

    <g transform="translate(0.000000,128.000000) scale(0.100000,-0.100000)" fill="#2c3639" stroke="none">
        <path d="M279 1155 c-151 -48 -249 -194 -237 -350 10 -115 25 -136 316 -427
    146 -148 274 -268 282 -268 9 0 138 123 286 273 308 309 309 311 309 452 0
    137 -63 238 -183 297 -60 30 -75 33 -152 33 -99 -1 -153 -21 -219 -80 l-41
    -37 -41 37 c-23 20 -62 46 -88 58 -59 26 -170 32 -232 12z m185 -81 c29 -10
    70 -37 106 -70 32 -30 63 -54 70 -54 7 0 39 24 71 54 71 66 136 91 214 83 138
    -14 243 -133 233 -266 -7 -98 -30 -128 -283 -381 l-235 -235 -235 235 c-158
    157 -243 250 -257 279 -55 114 -23 247 78 320 73 53 152 64 238 35z" />
        <path d="M1002 988 c-18 -18 -15 -34 14 -84 31 -53 29 -109 -5 -155 -24 -32
    -26 -50 -9 -67 45 -45 118 53 118 158 0 44 -42 135 -69 149 -25 14 -34 14 -49
    -1z" />
    </g>
</svg>